<svg width="30" height="30" viewBox="0 0 30 30" fill="none" xmlns="http://www.w3.org/2000/svg">
<path d="M15 18.0333L4.38333 28.65C3.98611 29.0472 3.48055 29.2458 2.86667 29.2458C2.25278 29.2458 1.74722 29.0472 1.35 28.65C0.952776 28.2528 0.754166 27.7472 0.754166 27.1333C0.754166 26.5194 0.952776 26.0139 1.35 25.6167L11.9667 15L1.35 4.38333C0.952776 3.98611 0.754166 3.48055 0.754166 2.86667C0.754166 2.25278 0.952776 1.74722 1.35 1.35C1.74722 0.952776 2.25278 0.754166 2.86667 0.754166C3.48055 0.754166 3.98611 0.952776 4.38333 1.35L15 11.9667L25.6167 1.35C26.0139 0.952776 26.5194 0.754166 27.1333 0.754166C27.7472 0.754166 28.2528 0.952776 28.65 1.35C29.0472 1.74722 29.2458 2.25278 29.2458 2.86667C29.2458 3.48055 29.0472 3.98611 28.65 4.38333L18.0333 15L28.65 25.6167C29.0472 26.0139 29.2458 26.5194 29.2458 27.1333C29.2458 27.7472 29.0472 28.2528 28.65 28.65C28.2528 29.0472 27.7472 29.2458 27.1333 29.2458C26.5194 29.2458 26.0139 29.0472 25.6167 28.65L15 18.0333Z" fill="#16614C"/>
</svg>
