<svg width="40" height="42" viewBox="0 0 40 42" fill="none" xmlns="http://www.w3.org/2000/svg">
<g filter="url(#filter0_d_9_27)">
<mask id="mask0_9_27" style="mask-type:alpha" maskUnits="userSpaceOnUse" x="0" y="0" width="40" height="40">
<rect width="40" height="40" fill="#D9D9D9"/>
</mask>
<g mask="url(#mask0_9_27)">
<path d="M20 22.5109L9.04571 33.4652C8.69006 33.8217 8.27156 34 7.79024 34C7.30976 34 6.89127 33.8217 6.53476 33.4652C6.17825 33.1087 6 32.6902 6 32.2098C6 31.7284 6.17825 31.3099 6.53476 30.9543L17.4891 20L6.53476 9.04571C6.17825 8.69006 6 8.27156 6 7.79024C6 7.30976 6.17825 6.89127 6.53476 6.53476C6.89127 6.17825 7.30976 6 7.79024 6C8.27156 6 8.69006 6.17825 9.04571 6.53476L20 17.4891L30.9543 6.53476C31.3099 6.17825 31.7284 6 32.2098 6C32.6902 6 33.1087 6.17825 33.4652 6.53476C33.8217 6.89127 34 7.30976 34 7.79024C34 8.27156 33.8217 8.69006 33.4652 9.04571L22.5109 20L33.4652 30.9543C33.8217 31.3099 34 31.7284 34 32.2098C34 32.6902 33.8217 33.1087 33.4652 33.4652C33.1087 33.8217 32.6902 34 32.2098 34C31.7284 34 31.3099 33.8217 30.9543 33.4652L20 22.5109Z" fill="#16614C"/>
</g>
</g>
<defs>
<filter id="filter0_d_9_27" x="2" y="6" width="36" height="36" filterUnits="userSpaceOnUse" color-interpolation-filters="sRGB">
<feFlood flood-opacity="0" result="BackgroundImageFix"/>
<feColorMatrix in="SourceAlpha" type="matrix" values="0 0 0 0 0 0 0 0 0 0 0 0 0 0 0 0 0 0 127 0" result="hardAlpha"/>
<feOffset dy="4"/>
<feGaussianBlur stdDeviation="2"/>
<feComposite in2="hardAlpha" operator="out"/>
<feColorMatrix type="matrix" values="0 0 0 0 0 0 0 0 0 0 0 0 0 0 0 0 0 0 0.25 0"/>
<feBlend mode="normal" in2="BackgroundImageFix" result="effect1_dropShadow_9_27"/>
<feBlend mode="normal" in="SourceGraphic" in2="effect1_dropShadow_9_27" result="shape"/>
</filter>
</defs>
</svg>
