<svg width="30" height="28" viewBox="0 0 30 28" fill="none" xmlns="http://www.w3.org/2000/svg">
<path d="M2.01701 14.1868C1.23541 13.6157 0.836902 12.9004 0.821497 12.0411C0.806092 11.1818 1.1177 10.4152 1.75632 9.74138L9.29656 2.00414C10.1874 1.10522 11.2368 0.599988 12.4448 0.488442C13.652 0.376339 14.7608 0.689454 15.7711 1.42779L27.0949 9.70267C28.1052 10.441 28.7408 11.4026 29.0014 12.5873C29.2614 13.7715 29.0984 14.9246 28.5126 16.0464L23.4315 25.5807C22.9836 26.3938 22.3479 26.9236 21.5245 27.1699C20.7011 27.4163 19.8986 27.2539 19.117 26.6827C18.7929 26.4459 18.5346 26.1694 18.3422 25.8533C18.149 25.5367 18.0216 25.1804 17.96 24.7845L17.1923 20.0124L8.95682 13.9943L4.17704 14.7125C3.78111 14.7741 3.40295 14.7609 3.04257 14.6731C2.68294 14.5857 2.34109 14.4236 2.01701 14.1868ZM3.85368 12.6339L9.49571 11.7562L19.1609 18.8191L20.0386 24.4611C20.0489 24.5271 20.1501 24.6888 20.3422 24.9461C20.5519 25.0994 20.7643 25.1592 20.9794 25.1258C21.1932 25.0925 21.3577 24.9571 21.4728 24.7195L26.6506 14.9928C26.9783 14.3842 27.0685 13.7406 26.921 13.062C26.773 12.3842 26.413 11.8363 25.8411 11.4184L14.5174 3.1435C13.9455 2.72558 13.3141 2.54906 12.6234 2.61394C11.932 2.67958 11.3463 2.96096 10.866 3.45808L3.17179 11.346C2.98042 11.5278 2.90175 11.7259 2.93577 11.9403C2.96848 12.1549 3.08968 12.3388 3.29938 12.492C3.35657 12.5338 3.54133 12.5811 3.85368 12.6339ZM20.9668 18.2087C21.2527 18.4176 21.5693 18.4951 21.9164 18.4411C22.2622 18.3873 22.5395 18.2175 22.7485 17.9315C22.9574 17.6455 23.035 17.3297 22.9812 16.9839C22.9272 16.6368 22.7573 16.3588 22.4713 16.1498C22.1854 15.9408 21.8692 15.8636 21.5229 15.9182C21.1763 15.9714 20.8986 16.141 20.6896 16.427C20.4807 16.7129 20.4035 17.0291 20.458 17.3754C20.5113 17.722 20.6808 17.9997 20.9668 18.2087ZM21.1867 13.1055C21.4727 13.3145 21.7888 13.3917 22.1352 13.3372C22.4817 13.2839 22.7594 13.1143 22.9684 12.8284C23.1774 12.5424 23.2546 12.2263 23.2 11.8799C23.1468 11.5334 22.9772 11.2556 22.6912 11.0467C22.4053 10.8377 22.0891 10.7605 21.7428 10.8151C21.3963 10.8683 21.1185 11.0379 20.9095 11.3238C20.7006 11.6098 20.6234 11.9259 20.6779 12.2723C20.7312 12.6188 20.9008 12.8966 21.1867 13.1055ZM11.2862 11.0468C11.4768 11.1861 11.6876 11.2378 11.9186 11.2018C12.1495 11.1659 12.3347 11.0526 12.474 10.862L13.4352 9.54661L14.7506 10.5078C14.9412 10.6471 15.152 10.6988 15.383 10.6629C15.614 10.627 15.7991 10.5137 15.9384 10.3231C16.0777 10.1324 16.1294 9.92163 16.0935 9.69067C16.0575 9.45971 15.9442 9.27457 15.7536 9.13526L14.4382 8.17404L15.3995 6.85866C15.5388 6.66802 15.5905 6.45722 15.5545 6.22626C15.5186 5.9953 15.4053 5.81017 15.2147 5.67086C15.024 5.53155 14.8132 5.47986 14.5823 5.51579C14.3513 5.55172 14.1662 5.66501 14.0269 5.85564L13.0657 7.17102L11.7503 6.2098C11.5596 6.07049 11.3488 6.0188 11.1179 6.05473C10.8869 6.09066 10.7018 6.20394 10.5625 6.39458C10.4232 6.58521 10.3715 6.79601 10.4074 7.02697C10.4433 7.25793 10.5566 7.44307 10.7473 7.58237L12.0626 8.5436L11.1014 9.85898C10.9621 10.0496 10.9104 10.2604 10.9463 10.4914C10.9823 10.7223 11.0956 10.9075 11.2862 11.0468Z" fill="#0D1F1A"/>
</svg>
