<svg width="111" height="111" viewBox="0 0 111 111" fill="none" xmlns="http://www.w3.org/2000/svg">
<path d="M40.9313 66.7156C39.1583 66.7156 37.6745 66.1182 36.4797 64.9234C35.2849 63.7286 34.6875 62.2448 34.6875 60.4719C34.6875 58.699 35.2849 57.2151 36.4797 56.0203C37.6745 54.8255 39.1583 54.2281 40.9313 54.2281C42.7042 54.2281 44.188 54.8255 45.3828 56.0203C46.5776 57.2151 47.175 58.699 47.175 60.4719C47.175 62.2448 46.5776 63.7286 45.3828 64.9234C44.188 66.1182 42.7042 66.7156 40.9313 66.7156V66.7156ZM70.1844 66.7156C68.4115 66.7156 66.9276 66.1182 65.7328 64.9234C64.538 63.7286 63.9406 62.2448 63.9406 60.4719C63.9406 58.699 64.538 57.2151 65.7328 56.0203C66.9276 54.8255 68.4115 54.2281 70.1844 54.2281C71.9573 54.2281 73.4411 54.8255 74.6359 56.0203C75.8307 57.2151 76.4281 58.699 76.4281 60.4719C76.4281 62.2448 75.8307 63.7286 74.6359 64.9234C73.4411 66.1182 71.9573 66.7156 70.1844 66.7156V66.7156ZM55.5 94.8125C66.4458 94.8125 75.7344 90.9969 83.3656 83.3656C90.9969 75.7344 94.8125 66.4458 94.8125 55.5C94.8125 53.4958 94.6583 51.5302 94.35 49.6031C94.0417 47.676 93.6562 45.9031 93.1937 44.2844C91.6521 44.6698 89.9755 44.9396 88.1641 45.0938C86.3526 45.2479 84.4833 45.325 82.5563 45.325C75.0792 45.325 68.0068 43.7833 61.3391 40.7C54.6714 37.6167 48.9865 33.2229 44.2844 27.5187C41.6635 33.7625 37.9057 39.2161 33.0109 43.8797C28.1161 48.5432 22.5083 52.1469 16.1875 54.6906V55.5C16.1875 66.4458 20.0031 75.7344 27.6344 83.3656C35.2656 90.9969 44.5542 94.8125 55.5 94.8125ZM55.5 101.75C49.1021 101.75 43.0896 100.536 37.4625 98.1078C31.8354 95.6797 26.9406 92.3844 22.7781 88.2219C18.6156 84.0594 15.3203 79.1646 12.8922 73.5375C10.4641 67.9104 9.25 61.8979 9.25 55.5C9.25 49.1021 10.4641 43.0896 12.8922 37.4625C15.3203 31.8354 18.6156 26.9406 22.7781 22.7781C26.9406 18.6156 31.8354 15.3203 37.4625 12.8922C43.0896 10.4641 49.1021 9.25 55.5 9.25C61.8979 9.25 67.9104 10.4641 73.5375 12.8922C79.1646 15.3203 84.0594 18.6156 88.2219 22.7781C92.3844 26.9406 95.6797 31.8354 98.1078 37.4625C100.536 43.0896 101.75 49.1021 101.75 55.5C101.75 61.8979 100.536 67.9104 98.1078 73.5375C95.6797 79.1646 92.3844 84.0594 88.2219 88.2219C84.0594 92.3844 79.1646 95.6797 73.5375 98.1078C67.9104 100.536 61.8979 101.75 55.5 101.75Z" fill="#01C38D"/>
</svg>
