<svg width="38" height="39" viewBox="0 0 38 39" fill="none" xmlns="http://www.w3.org/2000/svg">
<g filter="url(#filter0_d_1_199)">
<path d="M19 30.1529C16.9192 30.1529 14.9692 29.7622 13.1502 28.9808C11.3323 28.1994 9.74127 27.1236 8.37701 25.7536C7.0139 24.3824 5.94361 22.7832 5.16617 20.9561C4.38872 19.1278 4 17.1679 4 15.0765C4 12.9608 4.38872 10.9951 5.16617 9.17953C5.94361 7.36394 7.0139 5.77053 8.37701 4.39932C9.74127 3.02926 11.3323 1.95352 13.1502 1.17211C14.9692 0.390704 16.9192 0 19 0C21.105 0 23.0606 0.390704 24.867 1.17211C26.6734 1.95352 28.2587 3.02926 29.623 4.39932C30.9861 5.77053 32.0564 7.36394 32.8338 9.17953C33.6113 10.9951 34 12.9608 34 15.0765C34 17.1679 33.6113 19.1278 32.8338 20.9561C32.0564 22.7832 30.9861 24.3824 29.623 25.7536C28.2587 27.1236 26.6734 28.1994 24.867 28.9808C23.0606 29.7622 21.105 30.1529 19 30.1529ZM19 25.8973C22.0145 25.8973 24.5627 24.8516 26.6447 22.7601C28.7255 20.6675 29.766 18.1063 29.766 15.0765C29.766 12.0466 28.7255 9.4854 26.6447 7.39279C24.5627 5.30134 22.0145 4.25562 19 4.25562C15.9855 4.25562 13.4373 5.30134 11.3553 7.39279C9.27446 9.4854 8.23404 12.0466 8.23404 15.0765C8.23404 18.1063 9.27446 20.6675 11.3553 22.7601C13.4373 24.8516 15.9855 25.8973 19 25.8973Z" fill="#01C38D"/>
</g>
<defs>
<filter id="filter0_d_1_199" x="0" y="0" width="38" height="38.1529" filterUnits="userSpaceOnUse" color-interpolation-filters="sRGB">
<feFlood flood-opacity="0" result="BackgroundImageFix"/>
<feColorMatrix in="SourceAlpha" type="matrix" values="0 0 0 0 0 0 0 0 0 0 0 0 0 0 0 0 0 0 127 0" result="hardAlpha"/>
<feOffset dy="4"/>
<feGaussianBlur stdDeviation="2"/>
<feComposite in2="hardAlpha" operator="out"/>
<feColorMatrix type="matrix" values="0 0 0 0 0 0 0 0 0 0 0 0 0 0 0 0 0 0 0.25 0"/>
<feBlend mode="normal" in2="BackgroundImageFix" result="effect1_dropShadow_1_199"/>
<feBlend mode="normal" in="SourceGraphic" in2="effect1_dropShadow_1_199" result="shape"/>
</filter>
</defs>
</svg>
