<svg width="48" height="48" viewBox="0 0 48 48" fill="none" xmlns="http://www.w3.org/2000/svg">
<g filter="url(#filter0_d_1_199)">
<path d="M24 40C21.2255 40 18.6256 39.4817 16.2003 38.4451C13.7765 37.4085 11.655 35.9815 9.83601 34.164C8.01853 32.345 6.59149 30.2235 5.55489 27.7997C4.5183 25.3744 4 22.7745 4 20C4 17.1934 4.5183 14.5858 5.55489 12.1773C6.59149 9.76879 8.01853 7.65503 9.83601 5.83601C11.655 4.01853 13.7765 2.59149 16.2003 1.55489C18.6256 0.518297 21.2255 0 24 0C26.8066 0 29.4142 0.518297 31.8227 1.55489C34.2312 2.59149 36.345 4.01853 38.164 5.83601C39.9815 7.65503 41.4085 9.76879 42.4451 12.1773C43.4817 14.5858 44 17.1934 44 20C44 22.7745 43.4817 25.3744 42.4451 27.7997C41.4085 30.2235 39.9815 32.345 38.164 34.164C36.345 35.9815 34.2312 37.4085 31.8227 38.4451C29.4142 39.4817 26.8066 40 24 40ZM24 34.3546C28.0193 34.3546 31.4169 32.9674 34.1929 30.1929C36.9674 27.4169 38.3546 24.0193 38.3546 20C38.3546 15.9807 36.9674 12.5831 34.1929 9.80707C31.4169 7.03261 28.0193 5.64538 24 5.64538C19.9807 5.64538 16.5831 7.03261 13.8071 9.80707C11.0326 12.5831 9.64538 15.9807 9.64538 20C9.64538 24.0193 11.0326 27.4169 13.8071 30.1929C16.5831 32.9674 19.9807 34.3546 24 34.3546Z" fill="#16614C"/>
</g>
<defs>
<filter id="filter0_d_1_199" x="0" y="0" width="48" height="48" filterUnits="userSpaceOnUse" color-interpolation-filters="sRGB">
<feFlood flood-opacity="0" result="BackgroundImageFix"/>
<feColorMatrix in="SourceAlpha" type="matrix" values="0 0 0 0 0 0 0 0 0 0 0 0 0 0 0 0 0 0 127 0" result="hardAlpha"/>
<feOffset dy="4"/>
<feGaussianBlur stdDeviation="2"/>
<feComposite in2="hardAlpha" operator="out"/>
<feColorMatrix type="matrix" values="0 0 0 0 0 0 0 0 0 0 0 0 0 0 0 0 0 0 0.25 0"/>
<feBlend mode="normal" in2="BackgroundImageFix" result="effect1_dropShadow_1_199"/>
<feBlend mode="normal" in="SourceGraphic" in2="effect1_dropShadow_1_199" result="shape"/>
</filter>
</defs>
</svg>
