<svg width="42" height="45" viewBox="0 0 42 45" fill="none" xmlns="http://www.w3.org/2000/svg">
<g filter="url(#filter0_d_9_21)">
<mask id="mask0_9_21" style="mask-type:alpha" maskUnits="userSpaceOnUse" x="1" y="0" width="40" height="40">
<rect x="1" width="40" height="40" fill="#D9D9D9"/>
</mask>
<g mask="url(#mask0_9_21)">
<path d="M21 36.667C18.722 36.667 16.5693 36.2293 14.542 35.354C12.514 34.4793 10.743 33.285 9.229 31.771C7.715 30.257 6.52067 28.486 5.646 26.458C4.77067 24.4307 4.333 22.278 4.333 20C4.333 17.6947 4.77067 15.528 5.646 13.5C6.52067 11.472 7.715 9.70799 9.229 8.20799C10.743 6.70799 12.514 5.52066 14.542 4.64599C16.5693 3.77066 18.722 3.33299 21 3.33299C23.3053 3.33299 25.472 3.77066 27.5 4.64599C29.528 5.52066 31.292 6.70799 32.792 8.20799C34.292 9.70799 35.4793 11.472 36.354 13.5C37.2293 15.528 37.667 17.6947 37.667 20C37.667 22.278 37.2293 24.4307 36.354 26.458C35.4793 28.486 34.292 30.257 32.792 31.771C31.292 33.285 29.528 34.4793 27.5 35.354C25.472 36.2293 23.3053 36.667 21 36.667ZM21 33.875C24.8613 33.875 28.139 32.5277 30.833 29.833C33.5277 27.139 34.875 23.8613 34.875 20C34.875 16.1387 33.5277 12.861 30.833 10.167C28.139 7.47233 24.8613 6.12499 21 6.12499C17.1387 6.12499 13.861 7.47233 11.167 10.167C8.47233 12.861 7.125 16.1387 7.125 20C7.125 23.8613 8.47233 27.139 11.167 29.833C13.861 32.5277 17.1387 33.875 21 33.875Z" fill="#16614C"/>
</g>
</g>
<defs>
<filter id="filter0_d_9_21" x="0.333" y="3.33299" width="41.334" height="41.334" filterUnits="userSpaceOnUse" color-interpolation-filters="sRGB">
<feFlood flood-opacity="0" result="BackgroundImageFix"/>
<feColorMatrix in="SourceAlpha" type="matrix" values="0 0 0 0 0 0 0 0 0 0 0 0 0 0 0 0 0 0 127 0" result="hardAlpha"/>
<feOffset dy="4"/>
<feGaussianBlur stdDeviation="2"/>
<feComposite in2="hardAlpha" operator="out"/>
<feColorMatrix type="matrix" values="0 0 0 0 0 0 0 0 0 0 0 0 0 0 0 0 0 0 0.25 0"/>
<feBlend mode="normal" in2="BackgroundImageFix" result="effect1_dropShadow_9_21"/>
<feBlend mode="normal" in="SourceGraphic" in2="effect1_dropShadow_9_21" result="shape"/>
</filter>
</defs>
</svg>
